<svg xmlns="http://www.w3.org/2000/svg" xmlns:xlink="http://www.w3.org/1999/xlink" viewBox="0,0,256,256" width="50px" height="50px" fill-rule="nonzero"><g fill="#ffffff" fill-rule="nonzero" stroke="none" stroke-width="1" stroke-linecap="butt" stroke-linejoin="miter" stroke-miterlimit="10" stroke-dasharray="" stroke-dashoffset="0" font-family="none" font-weight="none" font-size="none" text-anchor="none" style="mix-blend-mode: normal"><g transform="scale(5.12,5.12)"><path d="M24.00977,5c-1.31822,0 -2.31125,0.16377 -3.12109,0.74414c-0.80984,0.58037 -1.29004,1.37754 -2.01758,2.48633c-0.46717,0.71198 -1.64189,2.80931 -3.26758,5.75195c-1.62569,2.94264 -3.64888,6.65306 -5.625,10.31641c-1.97612,3.66334 -3.90464,7.27722 -5.3418,10.0293c-0.71858,1.37604 -1.31419,2.53596 -1.73437,3.38477c-0.21009,0.42441 -0.37618,0.77023 -0.49609,1.03711c-0.05996,0.13344 -0.10776,0.24634 -0.14844,0.35352c-0.04068,0.10717 -0.10742,0.07197 -0.10742,0.50391c0,1.29932 0.38872,2.64381 1.50391,4.25977h-0.00195c0.63,0.91538 1.48408,1.65638 2.52148,1.97852c1.0374,0.32214 2.3148,0.08889 3.20898,-0.82422c0.33243,-0.33914 0.47823,-0.62097 0.84375,-1.18945c0.36552,-0.56848 0.83593,-1.32606 1.38867,-2.22656c1.10548,-1.80101 2.53924,-4.17447 4.08984,-6.7168c3.1012,-5.08466 6.68535,-10.85973 8.95898,-13.95703l0.02734,-0.03711c0.15718,-0.23282 0.06255,-0.14844 0.23242,-0.14844c0.17254,0 0.25873,-0.0183 0.37891,0.15625l0.00977,0.01172l0.00781,0.01172c2.27497,3.09926 5.86169,8.87402 8.9668,13.95898c1.55255,2.54248 2.98874,4.91764 4.0957,6.71875c0.55348,0.90055 1.02463,1.65803 1.39063,2.22656c0.366,0.56853 0.51387,0.85093 0.8457,1.18945c0.89375,0.912 2.16772,1.14582 3.20508,0.82422c1.03735,-0.3216 1.89285,-1.06255 2.52344,-1.97852c1.11529,-1.61717 1.50391,-2.96299 1.50391,-4.25977c0,-0.43143 -0.06869,-0.39668 -0.10937,-0.50391c-0.04068,-0.10722 -0.08848,-0.22004 -0.14844,-0.35352c-0.11992,-0.26696 -0.286,-0.61265 -0.49609,-1.03711c-0.42019,-0.84891 -1.01581,-2.00869 -1.73437,-3.38477c-1.43713,-2.75215 -3.36385,-6.3662 -5.33984,-10.0293c-1.976,-3.6631 -3.99959,-7.37444 -5.625,-10.31641c-1.62499,-2.94121 -2.79809,-5.034 -3.26563,-5.74609v-0.00195c-0.73407,-1.119 -1.2596,-1.92911 -2.0957,-2.5c-0.83651,-0.57116 -1.84349,-0.73242 -3.16406,-0.73242zM24.00977,7h1.86328c1.17043,0 1.64765,0.12017 2.03516,0.38477c0.38751,0.26459 0.82838,0.84411 1.55078,1.94531h0.00195c0.29121,0.44343 1.56468,2.68344 3.18555,5.61719c1.62087,2.93375 3.64211,6.64105 5.61523,10.29883c1.97313,3.65778 3.90017,7.26754 5.33008,10.00586c0.71495,1.36916 1.30476,2.52115 1.71289,3.3457c0.20406,0.41228 0.36374,0.74369 0.46484,0.96875c0.03153,0.0702 0.04537,0.10638 0.06445,0.15234c-0.01538,0.90505 -0.20724,1.66964 -1.13281,3.01172c-0.42341,0.61503 -1.0046,1.05923 -1.46875,1.20313c-0.46415,0.1439 -0.75729,0.12255 -1.18555,-0.31445c0.10859,0.11078 -0.24057,-0.32746 -0.5918,-0.87305c-0.35123,-0.54559 -0.817,-1.29426 -1.36719,-2.18945c-1.10038,-1.79039 -2.53843,-4.16587 -4.09375,-6.71289c-3.10642,-5.08712 -6.66781,-10.83391 -9.04883,-14.08008c-0.59622,-0.85953 -1.56322,-1.01758 -2.02148,-1.01758c-0.45781,0 -1.3486,0.25715 -1.87695,1.01172l0.00391,-0.00977c-0.0026,0.0036 -0.00707,0.01205 -0.00977,0.01563c-0.0021,0.003 -0.00581,0.00286 -0.00781,0.00586l-0.17578,0.25586v0.02344c-2.37834,3.2773 -5.81888,8.81175 -8.85937,13.79688c-1.5534,2.54692 -2.98899,4.92259 -4.08789,6.71289c-0.54946,0.89513 -1.01449,1.64591 -1.36523,2.19141c-0.35074,0.54549 -0.70123,0.98273 -0.5918,0.87109v0.00195c-0.42881,0.43784 -0.72145,0.45661 -1.18555,0.3125c-0.4641,-0.14411 -1.04379,-0.5885 -1.4668,-1.20312c-0.92572,-1.3414 -1.11747,-2.10378 -1.13281,-3.01172c0.01906,-0.04585 0.03115,-0.08062 0.0625,-0.15039c0.10111,-0.22503 0.26077,-0.55846 0.46484,-0.9707c0.40814,-0.82448 0.99987,-1.97657 1.71484,-3.3457c1.42994,-2.73827 3.35487,-6.34783 5.32812,-10.00586c1.97326,-3.65803 3.99408,-7.36438 5.61523,-10.29883c1.62116,-2.93445 2.89712,-5.17558 3.18945,-5.62109c0.72847,-1.11021 1.15606,-1.70215 1.51172,-1.95703c0.35566,-0.25488 0.7873,-0.37109 1.95508,-0.37109z"></path></g></g></svg>